<svg width="1000" height="1000" viewBox="0 0 1000 1000" fill="none" xmlns="http://www.w3.org/2000/svg">
<g clip-path="url(#clip0_5_34)">
<rect width="1000" height="1000" fill="#18191E"/>
<g clip-path="url(#clip1_5_34)">
<path d="M551.845 486.05H617.979V490.675H615.666C613.2 490.675 611.042 491.6 609.192 493.449C607.342 494.991 605.8 496.995 604.567 499.462C603.334 501.928 602.255 504.549 601.33 507.324C600.713 510.098 600.405 512.565 600.405 514.723V638.665C594.855 640.824 588.535 642.674 581.444 644.215C574.352 645.757 566.953 646.99 559.245 647.915C551.537 649.148 543.675 650.073 535.659 650.69C527.643 651.306 520.243 651.615 513.46 651.615C485.712 651.615 461.509 646.99 440.852 637.741C420.195 628.491 403.084 616.467 389.518 601.668C375.952 586.56 365.778 569.603 358.995 550.796C352.52 531.989 349.283 513.027 349.283 493.912C349.283 474.796 352.52 455.835 358.995 437.028C365.778 418.221 375.952 401.418 389.518 386.619C403.392 371.82 420.658 359.949 441.315 351.008C462.28 341.759 487.099 337.134 515.773 337.134C526.564 337.134 536.584 338.059 545.833 339.909C555.083 341.759 563.253 343.455 570.344 344.996C574.352 345.921 577.744 346.846 580.519 347.771C583.602 348.388 586.222 348.696 588.381 348.696H592.543V397.718H587.918C586.068 388.16 582.369 380.452 576.819 374.594C571.578 368.736 565.411 364.266 558.32 361.183C551.229 358.1 543.675 356.095 535.659 355.171C527.951 353.937 520.706 353.321 513.923 353.321C490.799 353.321 470.759 357.483 453.802 365.807C436.844 373.824 422.97 384.306 412.179 397.255C401.388 410.205 393.372 424.85 388.131 441.19C382.889 457.223 380.269 473.255 380.269 489.287C380.269 507.169 383.66 524.898 390.443 542.471C397.226 559.737 406.784 575.307 419.116 589.181C431.449 602.747 446.248 613.846 463.513 622.479C481.087 630.803 500.511 634.966 521.785 634.966C527.643 634.966 534.888 634.349 543.521 633.116C552.154 631.574 560.787 628.337 569.419 623.404V514.723C569.419 512.565 569.111 510.098 568.494 507.324C567.878 504.549 566.799 501.928 565.257 499.462C564.024 496.995 562.482 494.991 560.632 493.449C558.782 491.6 556.624 490.675 554.158 490.675H551.845V486.05Z" fill="#DF9146"/>
<path d="M554.452 720.027L507.399 710.549L459.521 720.027L507.399 728.048L554.452 720.027Z" fill="#DF9146"/>
<path d="M305.98 720.027H459.521M693.135 720.027H554.452M554.452 720.027L507.399 710.549L459.521 720.027M554.452 720.027L507.399 728.048L459.521 720.027" stroke="#DF9146" stroke-width="2.18732"/>
</g>
<rect x="66.6302" y="580" width="612.878" height="612.878" transform="rotate(-45 66.6302 580)" stroke="#DF9146" stroke-width="43.3176"/>
<rect width="874.927" height="295.288" transform="translate(62.2479 802.818)" fill="#18191E"/>
</g>
<defs>
<clipPath id="clip0_5_34">
<rect width="1000" height="1000" fill="white"/>
</clipPath>
<clipPath id="clip1_5_34">
<rect x="36" y="580" width="656.195" height="656.195" transform="rotate(-45 36 580)" fill="white"/>
</clipPath>
</defs>
</svg>
